<svg xmlns="http://www.w3.org/2000/svg" viewBox="189.2 34.3 202.3 202.5"><path fill="#BF1E2D" fill-rule="nonzero" d="M261.00 144.10L264.74 144.10L248.98 131.80L251.49 137.77C253.09 141.60 256.85 144.10 261.00 144.10"/><path fill="#BF1E2D" fill-rule="nonzero" d="M319.65 144.10C323.81 144.10 327.56 141.60 329.17 137.77L331.67 131.80L315.92 144.10L319.65 144.10"/><path fill="#FFFFFF" fill-rule="nonzero" d="M234.92 37.18C221.73 36.32 227.71 91.22 227.71 91.22L237.08 85.20L235.09 77.95L242.97 72.90L240.99 48.11L258.23 71.64L267.71 65.56C267.71 65.56 248.10 38.05 234.92 37.18"/><path fill="#FFFFFF" fill-rule="nonzero" d="M389.47 142.86C389.47 140.64 389.13 134.45 385.91 126.97C381.85 117.53 373.21 106.02 354.86 97.81C362.29 103.96 367.89 112.26 371.36 121.17C373.89 127.68 375.18 134.56 375.18 141.62C375.18 146.85 374.45 152.02 373.03 156.99C368.22 147.81 361.03 140.12 352.17 134.72L352.17 134.72L352.11 134.68C348.78 132.68 345.30 131.04 341.77 129.79L341.56 129.72L341.51 129.93C340.65 133.61 338.88 137.05 336.38 139.90L336.37 139.91C333.45 143.27 329.69 145.68 325.51 146.93C324.11 147.34 322.68 147.63 321.21 147.78C320.35 147.86 319.56 147.90 318.79 147.90C315.73 147.90 312.76 147.31 309.96 146.16C311.46 143.74 313.18 141.39 315.08 139.19C316.70 137.31 318.44 135.54 320.25 133.94C323.08 131.40 326.17 129.16 329.44 127.26C333.00 125.17 336.84 123.46 340.86 122.19L341.31 122.05L340.89 121.84C337.47 120.04 333.76 119.13 329.87 119.13C322.86 119.13 316.25 122.21 311.73 127.58L311.72 127.58L311.68 127.63C310.44 129.11 309.38 130.74 308.54 132.46C308.54 132.46 308.54 132.46 308.54 132.47C308.54 132.47 308.54 132.47 308.53 132.47L308.54 132.47C308.49 132.56 308.45 132.64 308.42 132.71C306.91 135.90 306.15 139.31 306.15 142.86C306.15 143.57 306.17 144.11 306.22 144.59C306.26 145.31 306.35 146.01 306.43 146.54L306.62 146.51L306.45 146.61C306.98 147.49 307.47 148.36 307.88 149.10C309.08 151.31 310.14 153.62 311.04 155.98C311.35 156.78 311.62 157.56 311.86 158.29C313.75 163.98 314.70 169.94 314.70 176.00C314.70 182.59 313.57 189.07 311.33 195.26C311.08 195.97 310.80 196.69 310.45 197.53L310.21 198.09C309.59 199.56 308.89 201.04 308.12 202.48L307.99 202.72L308.25 202.77C309.62 203.02 311.03 203.14 312.47 203.14C313.92 203.14 315.38 203.00 316.82 202.73C319.06 202.33 321.22 201.60 323.23 200.56L323.29 200.53L323.32 200.48C323.56 199.97 323.82 199.42 324.07 198.84C324.19 198.57 324.32 198.29 324.44 198.00C327.37 191.02 328.86 183.61 328.86 176.00C328.86 172.73 328.58 169.47 328.03 166.29C327.71 164.47 327.31 162.72 326.84 161.04C328.78 162.56 330.47 164.36 331.85 166.41L331.91 166.51L332.03 166.50C339.37 165.85 345.92 161.80 349.84 155.68C349.89 155.61 349.93 155.54 349.98 155.47C350.16 155.18 350.33 154.89 350.50 154.59C350.60 154.41 350.70 154.23 350.80 154.05C350.93 153.82 351.04 153.58 351.16 153.34C351.26 153.14 351.36 152.95 351.45 152.75C354.25 156.05 356.68 159.69 358.66 163.57C360.72 167.62 362.28 171.92 363.30 176.34C364.27 180.47 364.77 184.77 364.77 189.12L364.77 189.74L365.07 189.53C366.26 188.71 367.41 187.85 368.52 186.94C371.87 184.22 374.90 181.13 377.55 177.71L377.62 177.62L377.62 177.62C378.07 177.04 378.51 176.46 378.94 175.86L378.99 175.80L378.99 175.79C381.71 171.97 383.91 167.88 385.58 163.59C388.14 157.05 389.47 150.05 389.47 142.86"/><path fill="#FFFFFF" fill-rule="nonzero" d="M272.10 132.48L272.11 132.48C272.10 132.47 272.10 132.47 272.10 132.47C272.10 132.46 272.10 132.46 272.10 132.46C271.26 130.74 270.20 129.11 268.96 127.63L268.92 127.58L268.91 127.58C264.39 122.21 257.78 119.13 250.76 119.13C246.88 119.13 243.17 120.04 239.75 121.84L239.33 122.05L239.78 122.19C243.79 123.47 247.64 125.17 251.20 127.26C254.47 129.16 257.56 131.40 260.39 133.94C262.20 135.54 263.94 137.31 265.56 139.19C267.46 141.39 269.18 143.74 270.68 146.16C267.88 147.31 264.91 147.91 261.85 147.91C261.08 147.91 260.29 147.86 259.43 147.78C257.96 147.63 256.52 147.34 255.13 146.93C250.95 145.68 247.19 143.27 244.27 139.91L244.26 139.90C241.76 137.05 239.99 133.61 239.13 129.93L239.07 129.72L238.87 129.79C235.34 131.04 231.86 132.69 228.53 134.69L228.47 134.72L228.47 134.73C219.61 140.12 212.42 147.81 207.61 156.99C206.19 152.02 205.46 146.85 205.46 141.62C205.46 134.56 206.75 127.68 209.28 121.18C212.75 112.26 218.35 103.96 225.78 97.81C207.46 106.01 198.82 117.49 194.75 126.92C191.52 134.43 191.17 140.63 191.17 142.86C191.17 150.07 192.50 157.09 195.08 163.66C196.75 167.92 198.94 171.99 201.65 175.80L201.65 175.80L201.70 175.86C202.13 176.46 202.57 177.04 203.02 177.62L203.02 177.62L203.09 177.71C205.74 181.13 208.77 184.22 212.12 186.94C213.23 187.85 214.38 188.71 215.57 189.53L215.87 189.74L215.87 189.12C215.87 184.77 216.37 180.47 217.33 176.34C218.36 171.92 219.92 167.62 221.98 163.57C223.96 159.69 226.39 156.05 229.19 152.75C229.28 152.95 229.38 153.14 229.48 153.34C229.60 153.58 229.71 153.82 229.84 154.05C229.94 154.24 230.04 154.41 230.14 154.59C230.31 154.89 230.48 155.18 230.66 155.47C230.71 155.54 230.75 155.61 230.80 155.68C234.72 161.80 241.27 165.85 248.61 166.50L248.73 166.51L248.79 166.41C250.17 164.36 251.86 162.56 253.80 161.05C253.33 162.72 252.93 164.47 252.61 166.29C252.06 169.47 251.78 172.73 251.78 176.00C251.78 183.61 253.27 191.02 256.20 198.00C256.32 198.29 256.45 198.57 256.57 198.84C256.81 199.42 257.08 199.97 257.32 200.48L257.35 200.54L257.41 200.57C259.42 201.60 261.58 202.33 263.82 202.73C265.26 203.01 266.72 203.14 268.17 203.14C269.61 203.14 271.02 203.02 272.39 202.77L272.65 202.72L272.52 202.48C271.75 201.04 271.05 199.56 270.43 198.09L270.19 197.53C269.84 196.69 269.56 195.97 269.31 195.26C267.07 189.08 265.94 182.59 265.94 176.00C265.94 169.94 266.89 163.98 268.78 158.29C269.01 157.56 269.29 156.78 269.60 155.98C270.49 153.63 271.56 151.31 272.76 149.10C273.17 148.36 273.66 147.49 274.19 146.61L274.02 146.51L274.21 146.54C274.29 146.01 274.38 145.31 274.42 144.59C274.47 144.11 274.49 143.57 274.49 142.86C274.49 139.31 273.73 135.90 272.22 132.71C272.19 132.64 272.15 132.56 272.10 132.48"/><path fill="#FFFFFF" fill-rule="nonzero" d="M305.42 209.39C295.92 209.39 293.80 212.51 292.39 214.58C291.73 215.55 291.30 216.19 290.33 216.21C289.36 216.19 288.92 215.55 288.26 214.58C286.86 212.51 284.73 209.39 275.23 209.39C261.32 209.39 246.51 223.00 246.37 223.14L245.57 223.88L290.33 219.11L335.08 223.88L334.28 223.14C334.14 223.00 319.33 209.39 305.42 209.39"/><path fill="#FFFFFF" fill-rule="nonzero" d="M278.67 199.11L289.98 204.86C290.09 204.91 290.21 204.94 290.32 204.94L290.33 204.94C290.45 204.94 290.57 204.91 290.68 204.86L301.98 199.11C302.24 198.98 302.40 198.71 302.40 198.42L302.40 198.42C302.40 194.93 299.57 192.10 296.08 192.10L290.33 192.10L290.32 192.10L284.57 192.10C281.08 192.10 278.25 194.93 278.25 198.42C278.25 198.71 278.42 198.98 278.67 199.11"/><path fill="#FFFFFF" fill-rule="nonzero" d="M339.66 48.11L337.68 72.90L345.56 77.95L343.57 85.20L352.94 91.22C352.94 91.22 358.92 36.32 345.73 37.18C332.55 38.05 312.94 65.56 312.94 65.56L322.42 71.64L339.66 48.11"/><path fill="#FFFFFF" fill-rule="nonzero" d="M276.64 229.76C280.31 232.93 285.11 234.83 290.34 234.83C295.57 234.83 300.36 232.93 304.03 229.76L290.32 225.45L276.64 229.76"/></svg>